# xmcd
#
# Track frame offsets:
#	150
#	18369
#	35304
#	54133
#
# Disc length: 1044 seconds
#
# Revision: 2
# Processed by: cddbd v1.5.2PL0 Copyright (c) Steve Scherf et al.
# Submitted via: audiograbber 1.82.02
#
DISCID=21041204
DTITLE=k. d. lang - i dream of spring [Single, Import]
DYEAR=2007
DGENRE=Blues
TTITLE0=i dream of spring
TTITLE1=i dream of spring (live)
TTITLE2=wash me clean (live)
TTITLE3=hallelujah (live)
EXTD=
EXTT0=
EXTT1=
EXTT2=
EXTT3=
PLAYORDER=
